<svg width="1280" height="720" xmlns="http://www.w3.org/2000/svg" xmlns:xlink="http://www.w3.org/1999/xlink" overflow="hidden"><defs><clipPath id="clip0"><rect x="0" y="0" width="1280" height="720"/></clipPath><clipPath id="clip1"><rect x="280" y="0" width="720" height="720"/></clipPath><clipPath id="clip2"><rect x="280" y="0" width="720" height="720"/></clipPath><clipPath id="clip3"><rect x="280" y="0" width="720" height="720"/></clipPath><clipPath id="clip4"><rect x="661" y="471" width="96" height="96"/></clipPath><clipPath id="clip5"><rect x="661" y="471" width="96" height="96"/></clipPath><clipPath id="clip6"><rect x="661" y="471" width="96" height="96"/></clipPath><clipPath id="clip7"><rect x="417" y="309" width="323" height="323"/></clipPath><clipPath id="clip8"><rect x="417" y="309" width="323" height="323"/></clipPath><clipPath id="clip9"><rect x="417" y="309" width="323" height="323"/></clipPath></defs><g clip-path="url(#clip0)"><rect x="0" y="0" width="1280" height="720" fill="#000000" fill-opacity="0"/><g clip-path="url(#clip1)"><g clip-path="url(#clip2)"><g clip-path="url(#clip3)"><path d="M482.5 240C482.5 248.284 475.784 255 467.5 255 459.216 255 452.5 248.284 452.5 240 452.5 231.716 459.216 225 467.5 225 475.784 225 482.5 231.716 482.5 240Z" fill="#FED600"/><path d="M482.5 300C482.5 308.284 475.784 315 467.5 315 459.216 315 452.5 308.284 452.5 300 452.5 291.716 459.216 285 467.5 285 475.784 285 482.5 291.716 482.5 300Z" fill="#FED600"/><path d="M452.5 270C452.5 278.284 445.784 285 437.5 285 429.216 285 422.5 278.284 422.5 270 422.5 261.716 429.216 255 437.5 255 445.784 255 452.5 261.716 452.5 270Z" fill="#FED600"/><path d="M512.5 270C512.5 278.284 505.784 285 497.5 285 489.216 285 482.5 278.284 482.5 270 482.5 261.716 489.216 255 497.5 255 505.784 255 512.5 261.716 512.5 270Z" fill="#FED600"/><path d="M692.5 210C692.5 218.284 685.784 225 677.5 225 669.216 225 662.5 218.284 662.5 210 662.5 201.716 669.216 195 677.5 195 685.784 195 692.5 201.716 692.5 210Z" fill="#FED600"/><path d="M692.5 270C692.5 278.284 685.784 285 677.5 285 669.216 285 662.5 278.284 662.5 270 662.5 261.716 669.216 255 677.5 255 685.784 255 692.5 261.716 692.5 270Z" fill="#FED600"/><path d="M662.5 240C662.5 248.284 655.784 255 647.5 255 639.216 255 632.5 248.284 632.5 240 632.5 231.716 639.216 225 647.5 225 655.784 225 662.5 231.716 662.5 240Z" fill="#FED600"/><path d="M722.5 240C722.5 248.284 715.784 255 707.5 255 699.216 255 692.5 248.284 692.5 240 692.5 231.716 699.216 225 707.5 225 715.784 225 722.5 231.716 722.5 240Z" fill="#FED600"/><path d="M895 337.5 850 382.5 790 382.5 790 547.5 850 547.5 895 592.5 940 592.5 940 337.5Z" fill="#FED600"/><path d="M677.5 307.5C640 307.5 610 277.5 610 240 610 202.5 640 172.5 677.5 172.5 715 172.5 745 202.5 745 240 745 277.5 715 307.5 677.5 307.5ZM700 547.5C691.75 547.5 685 540.75 685 532.5 685 524.25 691.75 517.5 700 517.5 708.25 517.5 715 524.25 715 532.5 715 540.75 708.25 547.5 700 547.5ZM557.5 337.5C567.25 324 574.75 309 577.75 291.75 587.5 310.5 603.25 326.25 621.25 337.5L557.5 337.5ZM467.5 337.5C430 337.5 400 307.5 400 270 400 232.5 430 202.5 467.5 202.5 505 202.5 535 232.5 535 270 535 307.5 505 337.5 467.5 337.5ZM733 337.5C766.75 318 790 282 790 240 790 177.75 739.75 127.5 677.5 127.5 622.75 127.5 577.75 166.5 567.25 218.25 548.5 182.25 511 157.5 467.5 157.5 405.25 157.5 355 207.75 355 270 355 306.75 373 339 400 360L400 382.5 385 382.5 370 367.5 340 367.5 340 442.5 370 442.5 385 427.5 400 427.5 400 562.5C400 579 413.5 592.5 430 592.5L730 592.5C746.5 592.5 760 579 760 562.5L760 367.5C760 351.75 748 339 733 337.5Z" fill="#FED600"/></g></g></g><g clip-path="url(#clip4)"><g clip-path="url(#clip5)"><g clip-path="url(#clip6)"><path d="M738 505.8C729 496 719.3 502.7 711.9 504.4 711.7 502 711.1 499.8 710.4 497.7 713.5 497.4 718.1 496.4 721.3 493.1 726.5 487.9 726 479.1 726 479.1 726 479.1 717.1 478.6 712 483.8 709.6 486.2 708.4 489.4 707.8 492.2 703.4 484.8 697 480.9 696.6 480.6L693.5 485.7C693.6 485.8 704.4 492.5 705.9 504.3 698.6 502.5 688.8 496 680 505.7 670.3 516.4 678.6 571.2 709.1 556.1 739.5 571.3 747.7 516.5 738 505.8Z" fill="#FED600"/></g></g></g><g clip-path="url(#clip7)"><g clip-path="url(#clip8)"><g clip-path="url(#clip9)"><path d="M511.208 551.25 510.872 551.25C509.526 545.53 504.143 541.156 497.75 541.156L470.833 541.156C464.441 541.156 459.394 545.53 457.711 551.25L457.375 551.25C449.973 551.25 443.917 557.306 443.917 564.708L450.646 584.896 517.938 584.896 524.667 564.708C524.667 557.306 518.61 551.25 511.208 551.25Z"/><path d="M501.115 517.604C501.115 526.895 493.583 534.427 484.292 534.427 475.001 534.427 467.469 526.895 467.469 517.604 467.469 508.313 475.001 500.781 484.292 500.781 493.583 500.781 501.115 508.313 501.115 517.604Z"/><path d="M605.417 551.25 605.417 551.25C603.734 545.53 598.351 541.156 591.958 541.156L565.042 541.156C558.649 541.156 553.602 545.53 551.92 551.25L551.583 551.25C544.181 551.25 538.125 557.306 538.125 564.708L544.854 584.896 612.146 584.896 618.875 564.708C618.875 557.306 612.819 551.25 605.417 551.25Z"/><path d="M595.323 517.604C595.323 526.895 587.791 534.427 578.5 534.427 569.209 534.427 561.677 526.895 561.677 517.604 561.677 508.313 569.209 500.781 578.5 500.781 587.791 500.781 595.323 508.313 595.323 517.604Z"/><path d="M699.625 551.25 699.625 551.25C697.943 545.53 692.559 541.156 686.167 541.156L659.25 541.156C652.857 541.156 647.81 545.53 646.128 551.25L645.792 551.25C638.39 551.25 632.333 557.306 632.333 564.708L639.062 584.896 706.354 584.896 713.083 564.708C713.083 557.306 707.027 551.25 699.625 551.25Z"/><path d="M689.531 517.604C689.531 526.895 681.999 534.427 672.708 534.427 663.417 534.427 655.885 526.895 655.885 517.604 655.885 508.313 663.417 500.781 672.708 500.781 681.999 500.781 689.531 508.313 689.531 517.604Z"/><path d="M430.458 356.104 430.458 520.969 457.711 520.969C457.711 519.959 457.375 518.614 457.375 517.604 457.375 502.8 469.487 490.688 484.292 490.688 499.096 490.688 511.208 502.8 511.208 517.604 511.208 518.614 511.208 519.959 510.872 520.969L551.583 520.969C551.583 519.959 551.247 518.614 551.247 517.604 551.247 502.8 563.359 490.688 578.164 490.688 592.968 490.688 605.08 502.8 605.08 517.604 605.08 518.614 605.08 519.959 604.744 520.969L645.455 520.969C645.455 519.959 645.119 518.614 645.119 517.604 645.119 502.8 657.231 490.688 672.035 490.688 686.84 490.688 698.952 502.8 698.952 517.604 698.952 518.614 698.952 519.959 698.616 520.969L726.542 520.969 726.542 356.104 430.458 356.104Z"/></g></g></g><text fill="#FED600" font-family="Book Antiqua,Book Antiqua_MSFontService,sans-serif" font-weight="400" font-size="128" transform="translate(480.724 476)">HD</text></g></svg>